<?xml version="1.0" encoding="UTF-8"?>
<!DOCTYPE svg PUBLIC "-//W3C//DTD SVG 1.1//EN" "http://www.w3.org/Graphics/SVG/1.1/DTD/svg11.dtd">
<!-- Creator: CorelDRAW -->
<svg xmlns="http://www.w3.org/2000/svg" xml:space="preserve" width="96.4841mm" height="2.8399mm" style="shape-rendering:geometricPrecision; text-rendering:geometricPrecision; image-rendering:optimizeQuality; fill-rule:evenodd; clip-rule:evenodd"
viewBox="0 0 96.2844 2.83402"
 xmlns:xlink="http://www.w3.org/1999/xlink">
 <defs>
  <style type="text/css">
   <![CDATA[
    .fil1 {fill:#1F1A17}
    .fil0 {fill:#1F1A17;fill-rule:nonzero}
   ]]>
  </style>
 </defs>
 <g id="图层_x0020_1">
  <metadata id="CorelCorpID_0Corel-Layer"/>
  <path class="fil0" d="M5.58721 2.83402l-1.19502 0 -0.200784 -0.380112 -1.18804 0 -0.194696 0.380112 -0.344286 0 1.38882 -2.69691 0.297782 0 1.43622 2.69691zm-1.54619 -0.654942l-0.451164 -0.854528 -0.441385 0.854528 0.892549 0z"/>
  <polygon class="fil0" points="21.5336,2.83402 20.4525,2.83402 20.4525,0.137116 21.5336,0.137116 "/>
  <path class="fil0" d="M16.2145 2.83402l-1.19492 0 -0.200784 -0.380112 -1.18814 0 -0.194696 0.380112 -0.344286 0 1.38882 -2.69691 0.297782 0 1.43622 2.69691zm-1.54609 -0.654942l-0.451264 -0.854528 -0.441285 0.854528 0.892549 0z"/>
  <path class="fil0" d="M69.9547 0.137116l0 1.75366c0,0.229823 -0.0209565,0.391588 -0.0635682,0.485194 -0.0762419,0.167652 -0.203378,0.285707 -0.382108,0.354365 -0.179528,0.0692564 -0.450965,0.103685 -0.814411,0.103685 -0.2894,0 -0.513834,-0.0185615 -0.673104,-0.0560837 -0.293192,-0.0680589 -0.498766,-0.194796 -0.615523,-0.378914 -0.0687574,-0.108176 -0.103186,-0.268643 -0.103186,-0.481102l0 -1.78081 1.059 0 0 1.84887c0,0.122646 0.00898137,0.215054 0.0261458,0.276527 0.0179627,0.0620713 0.0508944,0.115361 0.0987951,0.162363 0.102388,0.0957015 0.266946,0.143802 0.495073,0.143802 0.278922,0 0.47252,-0.0679591 0.580297,-0.203977 0.036624,-0.0468029 0.0613727,-0.0989947 0.0732481,-0.156376 0.0127735,-0.0574808 0.0186613,-0.149191 0.0186613,-0.27463l0 -1.79657 0.300676 0z"/>
  <path class="fil0" d="M38.5258 2.83402l-1.19502 0 -0.200784 -0.380112 -1.18804 0 -0.194696 0.380112 -0.344286 0 1.38882 -2.69691 0.297782 0 1.43622 2.69691zm-1.54619 -0.654942l-0.451164 -0.854528 -0.441385 0.854528 0.892549 0z"/>
  <path class="fil1" d="M0.822295 1.46287l0 -0.893447 0.620713 0c0.279021,0 0.505152,0.199985 0.505152,0.446773 0,0.246688 -0.226131,0.446674 -0.505152,0.446674l-0.620713 0zm-0.822295 -1.27545l0 2.64661 0.835467 0 0 -1.07407 0.667316 0c0.29419,0 0.528105,-0.0647657 0.701844,-0.195095 0.172842,-0.129731 0.259761,-0.305367 0.259761,-0.52561 0,-0.269641 -0.108874,-0.479007 -0.325525,-0.628297 -0.216651,-0.149191 -0.521019,-0.223536 -0.913705,-0.223536l-1.22516 0z"/>
  <path class="fil1" d="M0.822295 1.46287l0 -0.893447 0.620713 0c0.279021,0 0.505152,0.199985 0.505152,0.446773 0,0.246688 -0.226131,0.446674 -0.505152,0.446674l-0.620713 0zm-0.822295 -1.27545l0 2.64661 0.835467 0 0 -1.07407 0.667316 0c0.29419,0 0.528105,-0.0647657 0.701844,-0.195095 0.172842,-0.129731 0.259761,-0.305367 0.259761,-0.52561 0,-0.269641 -0.108874,-0.479007 -0.325525,-0.628297 -0.216651,-0.149191 -0.521019,-0.223536 -0.913705,-0.223536l-1.22516 0z"/>
  <path class="fil0" d="M9.04584 2.10643c-0.132825,0.236509 -0.322332,0.417035 -0.568421,0.540978 -0.245491,0.124442 -0.536188,0.186613 -0.871493,0.186613 -0.21705,0 -0.417833,-0.0263454 -0.60255,-0.0789363 -0.185415,-0.0524911 -0.351471,-0.130529 -0.498865,-0.233017 -0.19759,-0.136217 -0.345783,-0.295188 -0.444578,-0.477011 -0.0987951,-0.182023 -0.148193,-0.383205 -0.148193,-0.604546 0,-0.421825 0.161166,-0.767009 0.482699,-1.03665 0.322332,-0.268942 0.736073,-0.403862 1.24232,-0.403862 0.290697,0 0.544171,0.0498965 0.760423,0.148791 0.215353,0.0993939 0.402465,0.253075 0.561236,0.460545l-0.403363 0.253674c-0.0964001,-0.175636 -0.214555,-0.307762 -0.353068,-0.39548 -0.139311,-0.0879177 -0.297982,-0.131427 -0.477011,-0.131427 -0.273732,0 -0.485094,0.0941048 -0.635781,0.282913 -0.149789,0.18801 -0.225133,0.454358 -0.225133,0.798644 0,0.317442 0.0859218,0.573311 0.258464,0.767608 0.172442,0.194397 0.398374,0.291895 0.678593,0.291895 0.176534,0 0.3377,-0.049198 0.483497,-0.146496 0.145698,-0.0982961 0.272934,-0.242796 0.381409,-0.435098l0.379812 0.210863z"/>
  <polygon class="fil0" points="12.4896,2.83402 11.2581,2.83402 11.2581,2.83402 11.2556,2.83402 10.6747,1.57394 10.6747,2.83402 9.53862,2.83402 9.53862,2.83402 9.53602,2.83402 9.53602,0 10.6722,0 10.6722,0 10.6747,0 10.6747,0.950529 11.8284,0 11.8293,0.00129731 11.8309,0 12.1124,0.314548 11.6518,1.05431 "/>
  <path class="fil0" d="M19.6216 2.33955c-0.21705,0.160367 -0.458349,0.283512 -0.723998,0.367837 -0.265649,0.0844249 -0.544271,0.126637 -0.834968,0.126637 -0.223536,0 -0.42921,-0.0270439 -0.61712,-0.0802336 -0.188709,-0.0531897 -0.357159,-0.132126 -0.505352,-0.235811 -0.200085,-0.139012 -0.348278,-0.300776 -0.446175,-0.484096 -0.0979968,-0.184018 -0.147494,-0.392885 -0.147494,-0.627898 0,-0.20268 0.0494973,-0.397675 0.148292,-0.584488 0.0987951,-0.187312 0.237308,-0.346481 0.41464,-0.477011 0.154679,-0.113465 0.330415,-0.199187 0.526408,-0.257266 0.196792,-0.0581793 0.408154,-0.0872191 0.63648,-0.0872191 0.290697,0 0.544271,0.0498965 0.760523,0.148791 0.216152,0.0993939 0.403264,0.253075 0.561136,0.461243l-0.402465 0.252975c-0.0964001,-0.175636 -0.214555,-0.307762 -0.353866,-0.39548 -0.139311,-0.0879177 -0.298082,-0.131427 -0.477011,-0.131427 -0.273732,0 -0.485892,0.0941048 -0.63658,0.282913 -0.149889,0.18801 -0.225133,0.454358 -0.225133,0.798644 0,0.31325 0.0850237,0.567822 0.254273,0.762818 0.169249,0.194996 0.388694,0.292593 0.660131,0.292593 0.10109,0 0.195894,-0.0131727 0.284211,-0.039518 0.0891152,-0.0262456 0.174937,-0.065564 0.259163,-0.118155l0 -0.755234 0.864906 0 0 0.779384z"/>
  <polygon class="fil0" points="22.3646,2.83402 22.3646,0.124442 23.3412,0.124442 24.3908,1.51047 24.3908,0.124442 24.8669,0.124442 24.8669,2.83402 24.3503,2.83402 23.0949,1.19293 23.1059,2.83402 "/>
  <path class="fil0" d="M28.9729 2.33955c-0.21705,0.160367 -0.458349,0.283512 -0.723998,0.367837 -0.265649,0.0844249 -0.544271,0.126637 -0.834968,0.126637 -0.223536,0 -0.42921,-0.0270439 -0.61712,-0.0802336 -0.188709,-0.0531897 -0.357059,-0.132126 -0.505252,-0.235811 -0.200085,-0.139012 -0.348278,-0.300776 -0.446274,-0.484096 -0.0979968,-0.184018 -0.147394,-0.392885 -0.147394,-0.627898 0,-0.20268 0.0493976,-0.397675 0.148193,-0.584488 0.0987951,-0.187312 0.237308,-0.346481 0.41464,-0.477011 0.154679,-0.113465 0.330415,-0.199187 0.526408,-0.257266 0.196792,-0.0581793 0.408154,-0.0872191 0.63648,-0.0872191 0.290797,0 0.544271,0.0498965 0.760523,0.148791 0.216252,0.0993939 0.403264,0.253075 0.561236,0.461243l-0.402565 0.252975c-0.0963003,-0.175636 -0.214555,-0.307762 -0.353866,-0.39548 -0.139311,-0.0879177 -0.298082,-0.131427 -0.477011,-0.131427 -0.273633,0 -0.485892,0.0941048 -0.63648,0.282913 -0.149889,0.18801 -0.225133,0.454358 -0.225133,0.798644 0,0.31325 0.0850237,0.567822 0.254273,0.762818 0.169249,0.194996 0.388694,0.292593 0.660031,0.292593 0.10119,0 0.195894,-0.0131727 0.284211,-0.039518 0.0891152,-0.0262456 0.174937,-0.065564 0.259163,-0.118155l0 -0.755234 0.864906 0 0 0.779384z"/>
  <polygon class="fil0" points="34.5566,2.83402 33.5157,2.83402 33.5157,0.748847 32.4902,2.18776 31.7293,1.48073 31.7293,2.83402 31.4338,2.83402 31.4338,0.237607 31.8455,0.237607 32.8416,1.17826 33.5157,0.237607 34.5566,0.237607 "/>
  <path class="fil0" d="M42.1839 2.10643c-0.132825,0.236509 -0.322332,0.417035 -0.568521,0.540978 -0.245391,0.124442 -0.536088,0.186613 -0.871393,0.186613 -0.21705,0 -0.417833,-0.0263454 -0.60255,-0.0789363 -0.185415,-0.0524911 -0.351471,-0.130529 -0.498865,-0.233017 -0.19759,-0.136217 -0.345883,-0.295188 -0.444578,-0.477011 -0.0988949,-0.182023 -0.148292,-0.383205 -0.148292,-0.604546 0,-0.421825 0.161266,-0.767009 0.482699,-1.03665 0.322332,-0.268942 0.736173,-0.403862 1.24232,-0.403862 0.290797,0 0.544271,0.0498965 0.760423,0.148791 0.215453,0.0993939 0.402565,0.253075 0.561336,0.460545l-0.403363 0.253674c-0.0964001,-0.175636 -0.214655,-0.307762 -0.353068,-0.39548 -0.139311,-0.0879177 -0.298082,-0.131427 -0.477111,-0.131427 -0.273633,0 -0.484994,0.0941048 -0.635682,0.282913 -0.149789,0.18801 -0.225133,0.454358 -0.225133,0.798644 0,0.317442 0.085822,0.573311 0.258364,0.767608 0.172442,0.194397 0.398374,0.291895 0.678692,0.291895 0.176534,0 0.3377,-0.049198 0.483397,-0.146496 0.145798,-0.0982961 0.273034,-0.242796 0.381409,-0.435098l0.379912 0.210863z"/>
  <polygon class="fil0" points="44.8944,1.28224 44.8944,0.124442 45.7836,0.124442 45.7836,2.83402 44.8944,2.83402 44.8944,1.64738 43.9421,1.64738 43.9421,2.83402 43.0529,2.83402 43.0529,0.124442 43.9421,0.124442 43.9421,1.28224 "/>
  <polygon class="fil0" points="47.4756,2.83402 46.3944,2.83402 46.3944,0.137116 47.4756,0.137116 "/>
  <polygon class="fil0" points="48.0863,2.83402 48.0863,0.124442 49.0629,0.124442 50.1126,1.51047 50.1126,0.124442 50.5887,0.124442 50.5887,2.83402 50.0721,2.83402 48.8167,1.19293 48.8276,2.83402 "/>
  <polygon class="fil0" points="51.1994,2.83402 51.1994,0.124442 53.1868,0.124442 53.1868,0.489585 52.0887,0.489585 52.0887,1.27815 53.1285,1.27815 53.1285,1.64329 52.0887,1.64329 52.0887,2.46888 53.2452,2.46888 53.2452,2.83402 "/>
  <polygon class="fil0" points="59.4792,2.83402 58.4383,2.83402 58.4383,0.748847 57.4128,2.18776 56.6519,1.48073 56.6519,2.83402 56.3564,2.83402 56.3564,0.237607 56.7681,0.237607 57.7642,1.17826 58.4383,0.237607 59.4792,0.237607 "/>
  <path class="fil0" d="M63.1971 2.83402l-1.19492 0 -0.200883 -0.380112 -1.18804 0 -0.194696 0.380112 -0.344286 0 1.38882 -2.69691 0.297782 0 1.43622 2.69691zm-1.54609 -0.654942l-0.451264 -0.854528 -0.441385 0.854528 0.892649 0z"/>
  <polygon class="fil0" points="63.8108,2.83402 63.8108,0.124442 64.7874,0.124442 65.8371,1.51047 65.8371,0.124442 66.3132,0.124442 66.3132,2.83402 65.7964,2.83402 64.5411,1.19293 64.5521,2.83402 "/>
  <polygon class="fil0" points="70.8775,2.83402 70.8775,0.124442 72.9086,0.124442 72.9086,0.489585 71.7668,0.489585 71.7668,1.27815 72.8551,1.27815 72.8551,1.64329 71.7668,1.64329 71.7668,2.83402 "/>
  <path class="fil0" d="M76.0314 2.83402l-1.19492 0 -0.200784 -0.380112 -1.18814 0 -0.194696 0.380112 -0.344286 0 1.38882 -2.69691 0.297782 0 1.43622 2.69691zm-1.54609 -0.654942l-0.451264 -0.854528 -0.441285 0.854528 0.892549 0z"/>
  <path class="fil0" d="M79.1655 2.10643c-0.132825,0.236509 -0.322332,0.417035 -0.568421,0.540978 -0.245491,0.124442 -0.536188,0.186613 -0.871493,0.186613 -0.21705,0 -0.417833,-0.0263454 -0.60255,-0.0789363 -0.185415,-0.0524911 -0.351471,-0.130529 -0.498865,-0.233017 -0.19759,-0.136217 -0.345783,-0.295188 -0.444578,-0.477011 -0.0987951,-0.182023 -0.148193,-0.383205 -0.148193,-0.604546 0,-0.421825 0.161166,-0.767009 0.482699,-1.03665 0.322332,-0.268942 0.736073,-0.403862 1.24232,-0.403862 0.290697,0 0.544171,0.0498965 0.760423,0.148791 0.215353,0.0993939 0.402465,0.253075 0.561236,0.460545l-0.403363 0.253674c-0.0964001,-0.175636 -0.214555,-0.307762 -0.353068,-0.39548 -0.139311,-0.0879177 -0.297982,-0.131427 -0.477011,-0.131427 -0.273732,0 -0.485094,0.0941048 -0.635781,0.282913 -0.149789,0.18801 -0.225133,0.454358 -0.225133,0.798644 0,0.317442 0.0859218,0.573311 0.258464,0.767608 0.172442,0.194397 0.398374,0.291895 0.678593,0.291895 0.176534,0 0.3377,-0.049198 0.483497,-0.146496 0.145698,-0.0982961 0.272934,-0.242796 0.381409,-0.435098l0.379812 0.210863z"/>
  <polygon class="fil0" points="80.818,2.83402 80.818,0.489585 79.9724,0.489585 79.9724,0.124442 82.5527,0.124442 82.5527,0.489585 81.7072,0.489585 81.7072,2.83402 "/>
  <path class="fil0" d="M86.2111 0.137116l0 1.75366c0,0.229823 -0.0209565,0.391588 -0.0635682,0.485194 -0.0762419,0.167652 -0.203378,0.285707 -0.382108,0.354365 -0.179528,0.0692564 -0.450965,0.103685 -0.814411,0.103685 -0.2894,0 -0.513834,-0.0185615 -0.673104,-0.0560837 -0.293192,-0.0680589 -0.498766,-0.194796 -0.615523,-0.378914 -0.0687574,-0.108176 -0.103186,-0.268643 -0.103186,-0.481102l0 -1.78081 1.059 0 0 1.84887c0,0.122646 0.00898137,0.215054 0.0261458,0.276527 0.0179627,0.0620713 0.0508944,0.115361 0.0987951,0.162363 0.102388,0.0957015 0.266946,0.143802 0.494973,0.143802 0.279021,0 0.47262,-0.0679591 0.580396,-0.203977 0.036624,-0.0468029 0.0613727,-0.0989947 0.0732481,-0.156376 0.0127735,-0.0574808 0.0186613,-0.149191 0.0186613,-0.27463l0 -1.79657 0.300676 0z"/>
  <path class="fil0" d="M87.2177 2.83402l0 -2.70958 1.38403 0c0.398374,0 0.710926,0.0740464 0.938554,0.22204 0.22683,0.147993 0.340194,0.349874 0.340194,0.606542 0,0.187511 -0.0615723,0.341592 -0.185515,0.460545 -0.123145,0.119752 -0.307662,0.204775 -0.553153,0.254472l0.767009 1.16598 -0.993639 0 -0.774294 -1.37744 0.199187 0c0.220343,0 0.383804,-0.0402166 0.490782,-0.121049 0.106878,-0.0802336 0.160367,-0.202081 0.160367,-0.365841 0,-0.173041 -0.054986,-0.300976 -0.166056,-0.384702 -0.11097,-0.082928 -0.283412,-0.124442 -0.518225,-0.124442l-0.224435 0 0 2.37348 -0.864806 0z"/>
  <polygon class="fil0" points="90.7282,2.83402 90.7282,0.124442 92.7155,0.124442 92.7155,0.489585 91.6174,0.489585 91.6174,1.27815 92.6572,1.27815 92.6572,1.64329 91.6174,1.64329 91.6174,2.46888 92.7739,2.46888 92.7739,2.83402 "/>
  <path class="fil0" d="M93.5933 2.83402l0 -2.70958 1.38403 0c0.398374,0 0.711025,0.0740464 0.938653,0.22204 0.22673,0.147993 0.340095,0.349874 0.340095,0.606542 0,0.187511 -0.0614725,0.341592 -0.185415,0.460545 -0.123145,0.119752 -0.307762,0.204775 -0.553153,0.254472l0.766909 1.16598 -0.993639 0 -0.774294 -1.37744 0.199287 0c0.220243,0 0.383804,-0.0402166 0.490682,-0.121049 0.106978,-0.0802336 0.160467,-0.202081 0.160467,-0.365841 0,-0.173041 -0.0550858,-0.300976 -0.166056,-0.384702 -0.11097,-0.082928 -0.283512,-0.124442 -0.518325,-0.124442l-0.224335 0 0 2.37348 -0.864906 0z"/>
 </g>
</svg>
