<?xml version="1.0" encoding="UTF-8"?>
<!DOCTYPE svg PUBLIC "-//W3C//DTD SVG 1.1//EN" "http://www.w3.org/Graphics/SVG/1.1/DTD/svg11.dtd">
<!-- Creator: CorelDRAW -->
<svg xmlns="http://www.w3.org/2000/svg" xml:space="preserve" width="57.7589mm" height="6.4991mm" style="shape-rendering:geometricPrecision; text-rendering:geometricPrecision; image-rendering:optimizeQuality; fill-rule:evenodd; clip-rule:evenodd"
viewBox="0 0 140.736 15.8358"
 xmlns:xlink="http://www.w3.org/1999/xlink">
 <defs>
  <style type="text/css">
   <![CDATA[
    .fil0 {fill:#1F1A17;fill-rule:nonzero}
   ]]>
  </style>
 </defs>
 <g id="图层_x0020_1">
  <metadata id="CorelCorpID_0Corel-Layer"/>
  <path class="fil0" d="M12.6029 15.5168l-12.6029 0 4.69925 -10.4633 -4.35934 0.00511688 0 -4.7397 11.7983 0 0 2.82915 -3.55891 7.83322 4.02358 0.0258281 0 4.50968zm102.705 0.000243661l-6.60468 0 0 -0.000243661 -0.0134014 0 -3.11496 -6.7577 0 6.75794 -6.0925 0 0 -0.000243661 -0.013645 0 0 -15.1979 6.09299 0 0 0.000243661 0.0131577 0 0 5.09666 6.18704 -5.0969 0.00487322 0.00730983 0.00852814 -0.00706617 1.50972 1.68662 -2.46975 3.96656 4.49262 9.54469zm-92.7769 -15.5171c2.34499,0 4.32864,0.774599 5.95094,2.32404 1.5704,1.50753 2.35791,3.4405 2.35791,5.79889 0,1.18858 -0.288495,2.34305 -0.869139,3.4634 -0.757543,1.47342 -1.94076,2.60498 -3.55429,3.39128 -1.18322,0.573335 -2.47389,0.858175 -3.87665,0.858175 -1.40276,0 -2.69782,-0.28484 -3.88152,-0.858175 -1.57015,-0.74804 -2.758,-1.86084 -3.56696,-3.33816 -0.671286,-1.22269 -1.00681,-2.50264 -1.00681,-3.83937 0,-2.30503 0.886439,-4.22265 2.65493,-5.75333 1.55358,-1.34038 3.48533,-2.02385 5.79158,-2.04675zm1.80285 7.64073l0 -1.92541c0,-1.7546 -0.107455,-2.85595 -0.326993,-3.30405 -0.284109,-0.588442 -0.795797,-0.884734 -1.53165,-0.884734 -0.804813,0 -1.3511,0.307744 -1.64374,0.926643 -0.103312,0.208818 -0.163497,0.448093 -0.185182,0.721481 -0.0214422,0.273388 -0.0387421,1.08234 -0.0557984,2.43052l0 2.10012 0 2.29358c0.00852814,1.29506 0.0214422,2.07356 0.0387421,2.33184 0.0170563,0.261936 0.0560421,0.520217 0.124755,0.770944 0.0903983,0.364517 0.292393,0.65691 0.606716,0.87718 0.309693,0.22027 0.675429,0.330161 1.09721,0.330161 0.559202,0 0.989752,-0.147902 1.27776,-0.440539 0.288495,-0.29215 0.469048,-0.763147 0.533618,-1.4125 0.0258281,-0.205163 0.0475139,-1.81138 0.0645702,-4.81523zm26.946 7.8761l-6.09299 0 0 -12.2052 -6.00235 8.42288 -4.45339 -4.13932 0 7.92167 -1.72975 0 0 -15.1979 2.40957 0 5.83057 5.5065 3.94536 -5.5065 6.09299 0 0 15.1979zm18.2412 -15.1979l0 10.0903c0,1.32137 -0.120612,2.25192 -0.365979,2.79114 -0.438834,0.964411 -1.1703,1.64423 -2.19855,2.0392 -1.03264,0.39863 -2.59475,0.596239 -4.68585,0.596239 -1.66518,0 -2.9561,-0.10648 -3.87251,-0.322851 -1.68687,-0.391076 -2.87008,-1.12035 -3.54137,-2.17979 -0.395706,-0.622798 -0.593802,-1.54554 -0.593802,-2.76848l0 -10.2457 6.09299 0 0 10.637c0,0.706374 0.0514125,1.23804 0.150339,1.59111 0.103312,0.356964 0.292637,0.664464 0.568218,0.934197 0.589416,0.550674 1.53604,0.827717 2.8484,0.827717 1.605,0 2.71926,-0.391076 3.33889,-1.17323 0.211011,-0.269733 0.353065,-0.56968 0.421777,-0.900084 0.0730983,-0.330405 0.107455,-0.858418 0.107455,-1.5799l0 -10.3368 1.72999 0zm18.71 15.1979l-6.60468 0 -3.12837 -6.78621 0 6.78621 -6.0925 0 0 -15.1979 6.0925 0 0 5.10762 6.20045 -5.10762 1.50972 1.68662 -2.46975 3.96656 4.49262 9.54469zm8.06518 0l-6.09275 0 0 -15.1979 6.09275 0 0 15.1979zm36.7575 0l-6.73406 0 -1.13156 -2.14178 -6.69508 0 -1.09721 2.14178 -1.94052 0 7.82688 -15.1979 1.67809 0 8.09345 15.1979zm-8.71308 -3.69122l-2.54285 -4.81548 -2.48705 4.81548 5.0299 0zm16.3952 3.69122l-6.09275 0 0 -15.1979 6.09275 0 0 15.1979z"/>
 </g>
</svg>
