<svg width="142" height="64" viewBox="0 0 142 64" fill="none" xmlns="http://www.w3.org/2000/svg">
<g clip-path="url(#clip0_2448_7930)">
<g opacity="0.85">
<path d="M45.6595 20.7665C45.3689 20.7665 45.122 20.9775 45.0766 21.2648L41.7122 42.6009C41.6999 42.6789 41.7047 42.7585 41.7262 42.8344C41.7477 42.9103 41.7854 42.9807 41.8367 43.0406C41.888 43.1006 41.9516 43.1487 42.0233 43.1817C42.0949 43.2147 42.1729 43.2318 42.2518 43.2319H46.2417C46.5319 43.2319 46.7792 43.0204 46.8247 42.7335L47.813 36.468C47.858 36.1811 48.1053 35.9697 48.3959 35.9697H52.0235C56.2619 35.9697 59.8599 32.8772 60.5171 28.6867C61.1797 24.4607 57.8783 20.7756 53.199 20.7665H45.6595ZM49.5381 25.5295H52.4405C54.8299 25.5295 55.6081 26.9394 55.362 28.4986C55.116 30.0611 53.9075 31.2121 51.5961 31.2121H48.642L49.5381 25.5295ZM68.632 26.9799C67.6245 26.9836 66.4653 27.19 65.1638 27.7321C62.1784 28.9765 60.7448 31.5482 60.1359 33.423C60.1359 33.423 58.1981 39.1431 62.5762 42.2857C62.5762 42.2857 66.6366 45.311 71.2074 42.0993L71.1286 42.6009C71.1164 42.6788 71.1212 42.7584 71.1426 42.8342C71.1641 42.9101 71.2017 42.9804 71.2529 43.0403C71.3041 43.1003 71.3676 43.1484 71.4392 43.1815C71.5107 43.2145 71.5886 43.2317 71.6674 43.2319H75.4551C75.7457 43.2319 75.9926 43.0204 76.038 42.7335L78.342 28.1225C78.3544 28.0445 78.3497 27.9649 78.3283 27.8889C78.3069 27.813 78.2693 27.7425 78.2181 27.6825C78.1669 27.6225 78.1033 27.5742 78.0317 27.5411C77.9601 27.508 77.8821 27.4908 77.8032 27.4907H74.0156C73.7249 27.4907 73.4776 27.7021 73.4326 27.989L73.3087 28.7755C73.3087 28.7755 71.6549 26.9686 68.632 26.9799ZM68.7559 31.5949C69.1908 31.5949 69.5886 31.6549 69.9456 31.7696C71.5798 32.2942 72.5064 33.8642 72.2383 35.566C71.9076 37.6615 70.1891 39.2044 67.9852 39.2044C67.5507 39.2044 67.1529 39.1448 66.7955 39.0301C65.1617 38.5055 64.2293 36.9355 64.4974 35.2337C64.8281 33.1382 66.552 31.5949 68.7559 31.5949Z" fill="black"/>
<path d="M100.204 20.7665C99.9133 20.7665 99.6665 20.9775 99.621 21.2648L96.2566 42.6009C96.2444 42.6789 96.2492 42.7585 96.2707 42.8344C96.2922 42.9103 96.3299 42.9807 96.3811 43.0406C96.4324 43.1006 96.4961 43.1487 96.5677 43.1817C96.6394 43.2147 96.7173 43.2318 96.7962 43.2319H100.786C101.076 43.2319 101.324 43.0204 101.369 42.7335L102.357 36.468C102.402 36.1811 102.65 35.9697 102.94 35.9697H106.568C110.806 35.9697 114.404 32.8772 115.061 28.6867C115.724 24.4607 112.423 20.7756 107.743 20.7665H100.204ZM104.083 25.5295H106.985C109.374 25.5295 110.153 26.9394 109.906 28.4986C109.66 30.0611 108.452 31.2121 106.14 31.2121H103.186L104.083 25.5295ZM123.176 26.9799C122.169 26.9836 121.009 27.19 119.708 27.7321C116.722 28.9765 115.289 31.5482 114.68 33.423C114.68 33.423 112.743 39.1431 117.121 42.2857C117.121 42.2857 121.181 45.311 125.752 42.0993L125.673 42.6009C125.661 42.6789 125.666 42.7585 125.687 42.8344C125.709 42.9103 125.746 42.9807 125.798 43.0406C125.849 43.1006 125.913 43.1487 125.984 43.1817C126.056 43.2147 126.134 43.2318 126.213 43.2319H130C130.291 43.2319 130.537 43.0204 130.583 42.7335L132.888 28.1225C132.9 28.0445 132.895 27.9647 132.874 27.8887C132.852 27.8127 132.815 27.7422 132.764 27.6822C132.712 27.6221 132.649 27.5739 132.577 27.5409C132.505 27.5078 132.427 27.4907 132.348 27.4907H128.56C128.27 27.4907 128.022 27.7021 127.977 27.989L127.854 28.7755C127.854 28.7755 126.199 26.9686 123.176 26.9799ZM123.3 31.5949C123.735 31.5949 124.133 31.6549 124.49 31.7696C126.124 32.2942 127.05 33.8642 126.782 35.566C126.452 37.6615 124.733 39.2044 122.529 39.2044C122.095 39.2044 121.697 39.1448 121.34 39.0301C119.706 38.5055 118.773 36.9355 119.041 35.2337C119.372 33.1382 121.096 31.5949 123.3 31.5949Z" fill="black"/>
<path d="M80.1393 27.4907C79.8391 27.4907 79.6255 27.7839 79.7173 28.0695L83.8698 40.9554L80.1151 47.0279C79.9329 47.3227 80.1447 47.7034 80.4913 47.7034H84.929C85.0559 47.7033 85.1807 47.6705 85.2912 47.6081C85.4017 47.5457 85.4943 47.4559 85.56 47.3473L97.1573 28.1621C97.3354 27.8673 97.1227 27.4903 96.7783 27.4903H92.3409C92.2128 27.4904 92.0868 27.5239 91.9756 27.5874C91.8643 27.6509 91.7715 27.7424 91.7062 27.8527L87.1412 35.5598L84.824 27.9098C84.7485 27.6608 84.5187 27.4903 84.2589 27.4903L80.1393 27.4907Z" fill="black"/>
<path d="M137.191 20.7665C136.901 20.7665 136.654 20.9779 136.608 21.2648L133.243 42.6001C133.231 42.6781 133.235 42.7578 133.257 42.8338C133.278 42.9099 133.316 42.9803 133.367 43.0404C133.419 43.1004 133.482 43.1486 133.554 43.1817C133.626 43.2147 133.704 43.2319 133.783 43.2319H137.773C138.063 43.2319 138.31 43.0204 138.356 42.7335L141.72 21.3974C141.732 21.3195 141.727 21.2399 141.706 21.1641C141.685 21.0883 141.647 21.0179 141.596 20.958C141.545 20.8981 141.481 20.8499 141.409 20.8168C141.338 20.7838 141.26 20.7666 141.181 20.7665H137.191Z" fill="black"/>
<path opacity="0.8" d="M12.3965 20.7665C12.1394 20.7667 11.8909 20.8585 11.6956 21.0256C11.5002 21.1926 11.3708 21.4238 11.3306 21.6776L9.55957 32.9101C9.64214 32.3855 10.0942 31.999 10.6254 31.999H15.8151C21.0381 31.999 25.47 28.1888 26.2798 23.0254C26.3401 22.6399 26.3743 22.2508 26.382 21.8607C25.0547 21.1647 23.4955 20.7665 21.787 20.7665H12.3965Z" fill="black"/>
<path opacity="0.5" d="M26.3821 21.8611C26.3744 22.2512 26.3402 22.6403 26.2799 23.0258C25.4701 28.1892 21.0378 31.9994 15.8152 31.9994H10.6255C10.0947 31.9994 9.64225 32.3855 9.55969 32.9105L7.93127 43.2323L6.91127 49.7075C6.89137 49.8327 6.89883 49.9606 6.93316 50.0825C6.9675 50.2045 7.0279 50.3175 7.11016 50.4138C7.19242 50.5102 7.2946 50.5875 7.40965 50.6405C7.5247 50.6935 7.64989 50.7209 7.77657 50.7209H13.4095C13.6665 50.7207 13.915 50.6288 14.1104 50.4618C14.3058 50.2948 14.4352 50.0636 14.4753 49.8097L15.959 40.3991C15.9993 40.1451 16.1288 39.9138 16.3243 39.7468C16.5199 39.5798 16.7686 39.488 17.0258 39.488H20.3422C25.5652 39.488 29.9972 35.6778 30.807 30.5144C31.382 26.8498 29.5364 23.515 26.3821 21.8611Z" fill="black"/>
<path d="M5.99702 13.2791C5.46617 13.2791 5.01373 13.6653 4.93116 14.1895L0.510879 42.2189C0.427061 42.751 0.83824 43.2323 1.37701 43.2323H7.93193L9.55951 32.9105L11.3305 21.678C11.3707 21.4242 11.5001 21.193 11.6955 21.026C11.8909 20.859 12.1394 20.7671 12.3964 20.7669H21.787C23.4958 20.7669 25.0546 21.1655 26.382 21.8611C26.4729 17.1602 22.5939 13.2791 17.2608 13.2791H5.99702Z" fill="black"/>
</g>
</g>
<defs>
<clipPath id="clip0_2448_7930">
<rect width="141" height="64" fill="white" transform="translate(0.5)"/>
</clipPath>
</defs>
</svg>
